HIERARCHY
ROOT Hips
{
	OFFSET -14.64140 90.27770 -84.91600
	CHANNELS 6 Xposition Yposition Zposition Zrotation Xrotation Yrotation
	JOINT Spine
	{
		OFFSET 0.00000 13.20850 -1.60436
		CHANNELS 3 Zrotation Xrotation Yrotation
		JOINT Spine1
		{
			OFFSET 0.00000 8.61716 0.00000
			CHANNELS 3 Zrotation Xrotation Yrotation
			JOINT Spine2
			{
				OFFSET 0.00000 8.61717 0.00000
				CHANNELS 3 Zrotation Xrotation Yrotation
				JOINT Spine3
				{
					OFFSET 0.00000 8.61717 0.00000
					CHANNELS 3 Zrotation Xrotation Yrotation
					JOINT Neck
					{
						OFFSET 0.00000 11.07920 1.10792
						CHANNELS 3 Zrotation Xrotation Yrotation
						JOINT Neck1
						{
							OFFSET 0.00000 7.08032 0.00000
							CHANNELS 3 Zrotation Xrotation Yrotation
							JOINT Head
							{
								OFFSET 0.00000 7.08031 0.00000
								CHANNELS 3 Zrotation Xrotation Yrotation
								End site
								{
									OFFSET 0.00000 0.00000 0.00000
								}
							}
						}
					}
					JOINT RightShoulder
					{
						OFFSET -0.01000 7.91373 5.19711
						CHANNELS 3 Zrotation Xrotation Yrotation
						JOINT RightArm
						{
							OFFSET -18.41580 0.00000 0.00000
							CHANNELS 3 Zrotation Xrotation Yrotation
							JOINT RightForeArm
							{
								OFFSET -29.11090 0.00000 0.00000
								CHANNELS 3 Zrotation Xrotation Yrotation
								JOINT RightHand
								{
									OFFSET -24.65040 0.00000 0.00000
									CHANNELS 3 Zrotation Xrotation Yrotation
									JOINT RightHandThumb1
									{
										OFFSET -5.35114 -0.85590 3.97906
										CHANNELS 3 Zrotation Xrotation Yrotation
										JOINT RightHandThumb2
										{
											OFFSET -4.52789 0.00000 0.00000
											CHANNELS 3 Zrotation Xrotation Yrotation
											JOINT RightHandThumb3
											{
												OFFSET -2.46976 0.00000 0.00000
												CHANNELS 3 Zrotation Xrotation Yrotation
												End site
												{
													OFFSET 0.00000 0.00000 0.00000
												}
											}
										}
									}
									JOINT RightHandIndex1
									{
										OFFSET -14.26970 0.00000 2.88139
										CHANNELS 3 Zrotation Xrotation Yrotation
										JOINT RightHandIndex2
										{
											OFFSET -5.48836 0.00000 0.00000
											CHANNELS 3 Zrotation Xrotation Yrotation
											JOINT RightHandIndex3
											{
												OFFSET -3.01859 0.00000 0.00000
												CHANNELS 3 Zrotation Xrotation Yrotation
												End site
												{
													OFFSET 0.00000 0.00000 0.00000
												}
											}
										}
									}
									JOINT RightHandMiddle1
									{
										OFFSET -14.26970 0.00000 -0.09147
										CHANNELS 3 Zrotation Xrotation Yrotation
										JOINT RightHandMiddle2
										{
											OFFSET -6.17441 0.00000 0.00000
											CHANNELS 3 Zrotation Xrotation Yrotation
											JOINT RightHandMiddle3
											{
												OFFSET -3.56743 0.00000 0.00000
												CHANNELS 3 Zrotation Xrotation Yrotation
												End site
												{
													OFFSET 0.00000 0.00000 0.00000
												}
											}
										}
									}
									JOINT RightHandRing1
									{
										OFFSET -12.69180 0.00000 -3.06433
										CHANNELS 3 Zrotation Xrotation Yrotation
										JOINT RightHandRing2
										{
											OFFSET -5.62556 0.00000 0.00000
											CHANNELS 3 Zrotation Xrotation Yrotation
											JOINT RightHandRing3
											{
												OFFSET -3.56744 0.00000 0.00000
												CHANNELS 3 Zrotation Xrotation Yrotation
												End site
												{
													OFFSET 0.00000 0.00000 0.00000
												}
											}
										}
									}
									JOINT RightHandPinky1
									{
										OFFSET -11.11390 0.00000 -6.03719
										CHANNELS 3 Zrotation Xrotation Yrotation
										JOINT RightHandPinky2
										{
											OFFSET -4.52789 0.00000 0.00000
											CHANNELS 3 Zrotation Xrotation Yrotation
											JOINT RightHandPinky3
											{
												OFFSET -2.46976 0.00000 0.00000
												CHANNELS 3 Zrotation Xrotation Yrotation
												End site
												{
													OFFSET 0.00000 0.00000 0.00000
												}
											}
										}
									}
								}
							}
						}
					}
					JOINT LeftShoulder
					{
						OFFSET 0.01000 7.91373 5.19711
						CHANNELS 3 Zrotation Xrotation Yrotation
						JOINT LeftArm
						{
							OFFSET 18.41580 0.00000 0.00000
							CHANNELS 3 Zrotation Xrotation Yrotation
							JOINT LeftForeArm
							{
								OFFSET 29.11090 0.00000 0.00000
								CHANNELS 3 Zrotation Xrotation Yrotation
								JOINT LeftHand
								{
									OFFSET 24.65040 0.00000 0.00000
									CHANNELS 3 Zrotation Xrotation Yrotation
									JOINT LeftHandThumb1
									{
										OFFSET 5.35114 -0.85590 3.97906
										CHANNELS 3 Zrotation Xrotation Yrotation
										JOINT LeftHandThumb2
										{
											OFFSET 4.52789 0.00000 0.00000
											CHANNELS 3 Zrotation Xrotation Yrotation
											JOINT LeftHandThumb3
											{
												OFFSET 2.46977 0.00000 0.00000
												CHANNELS 3 Zrotation Xrotation Yrotation
												End site
												{
													OFFSET 0.00000 0.00000 0.00000
												}
											}
										}
									}
									JOINT LeftHandIndex1
									{
										OFFSET 14.26970 0.00000 2.88139
										CHANNELS 3 Zrotation Xrotation Yrotation
										JOINT LeftHandIndex2
										{
											OFFSET 5.48836 0.00000 0.00000
											CHANNELS 3 Zrotation Xrotation Yrotation
											JOINT LeftHandIndex3
											{
												OFFSET 3.01859 0.00000 0.00000
												CHANNELS 3 Zrotation Xrotation Yrotation
												End site
												{
													OFFSET 0.00000 0.00000 0.00000
												}
											}
										}
									}
									JOINT LeftHandMiddle1
									{
										OFFSET 14.26970 0.00000 -0.09147
										CHANNELS 3 Zrotation Xrotation Yrotation
										JOINT LeftHandMiddle2
										{
											OFFSET 6.17440 0.00000 0.00000
											CHANNELS 3 Zrotation Xrotation Yrotation
											JOINT LeftHandMiddle3
											{
												OFFSET 3.56744 0.00000 0.00000
												CHANNELS 3 Zrotation Xrotation Yrotation
												End site
												{
													OFFSET 0.00000 0.00000 0.00000
												}
											}
										}
									}
									JOINT LeftHandRing1
									{
										OFFSET 12.69180 0.00000 -3.06433
										CHANNELS 3 Zrotation Xrotation Yrotation
										JOINT LeftHandRing2
										{
											OFFSET 5.62556 0.00000 0.00000
											CHANNELS 3 Zrotation Xrotation Yrotation
											JOINT LeftHandRing3
											{
												OFFSET 3.56744 0.00000 0.00000
												CHANNELS 3 Zrotation Xrotation Yrotation
												End site
												{
													OFFSET 0.00000 0.00000 0.00000
												}
											}
										}
									}
									JOINT LeftHandPinky1
									{
										OFFSET 11.11390 0.00000 -6.03719
										CHANNELS 3 Zrotation Xrotation Yrotation
										JOINT LeftHandPinky2
										{
											OFFSET 4.52789 0.00000 0.00000
											CHANNELS 3 Zrotation Xrotation Yrotation
											JOINT LeftHandPinky3
											{
												OFFSET 2.46976 0.00000 0.00000
												CHANNELS 3 Zrotation Xrotation Yrotation
												End site
												{
													OFFSET 0.00000 0.00000 0.00000
												}
											}
										}
									}
								}
							}
						}
					}
					JOINT pCube4
					{
						OFFSET 0.00000 10.91090 1.10792
						CHANNELS 3 Zrotation Xrotation Yrotation
						End site
						{
							OFFSET 0.00000 0.00000 0.00000
						}
					}
				}
			}
		}
	}
	JOINT RightUpLeg
	{
		OFFSET -9.98441 0.00000 0.00000
		CHANNELS 3 Zrotation Xrotation Yrotation
		JOINT RightLeg
		{
			OFFSET 0.00000 -42.11790 0.00000
			CHANNELS 3 Zrotation Xrotation Yrotation
			JOINT RightFoot
			{
				OFFSET 0.00000 -45.00020 -0.00001
				CHANNELS 3 Zrotation Xrotation Yrotation
				JOINT RightForeFoot
				{
					OFFSET 0.00000 -3.74820 0.00000
					CHANNELS 3 Zrotation Xrotation Yrotation
					JOINT RightToeBase
					{
						OFFSET 0.00000 0.06325 14.43120
						CHANNELS 3 Zrotation Xrotation Yrotation
						End site
						{
							OFFSET 0.00000 0.00000 0.00000
						}
					}
				}
			}
		}
	}
	JOINT LeftUpLeg
	{
		OFFSET 9.98441 0.00000 0.00000
		CHANNELS 3 Zrotation Xrotation Yrotation
		JOINT LeftLeg
		{
			OFFSET 0.00000 -42.11800 0.00000
			CHANNELS 3 Zrotation Xrotation Yrotation
			JOINT LeftFoot
			{
				OFFSET 0.00000 -45.00070 0.00000
				CHANNELS 3 Zrotation Xrotation Yrotation
				JOINT LeftForeFoot
				{
					OFFSET 0.00000 -3.74824 0.00000
					CHANNELS 3 Zrotation Xrotation Yrotation
					JOINT LeftToeBase
					{
						OFFSET 0.00000 0.06325 14.43110
						CHANNELS 3 Zrotation Xrotation Yrotation
						End site
						{
							OFFSET 0.00000 0.00000 0.00000
						}
					}
				}
			}
		}
	}
}
MOTION
Frames: 4
Frame Time: 0.050000
0.011770360565612462 0.007313002067758503 -0.011879192540201207 -0.04789962033762434 0.0494049854573784 0.0032248750109133226 -1.9250079912265774 1.7804702470780185 -0.8820797960140263 -1.0116254722762845 3.9635774201349085 0.42362219868733425 -1.1996636570624155 -1.4776137431791996 -1.2205106373847352 0.7609759555595276 0.6595820601652662 -0.8799543127154046 0.17787334927874568 12.285275270410514 -1.581537535523684 -0.128684342244493 -1.157947641063761 -5.260689331350785 0.46420122280331755 -16.93643485285734 -0.3974386734981661 -4.118507346654929 1.4012080840481107 -14.958348540440031 71.030149951504 27.31561612132679 3.6637586119388983 -0.9436320690637071 5.353049983199309 39.40310773482854 22.84318693750521 -0.10663889828338687 -5.492981049647066 4.568688955019836 -0.09802321170904899 -1.6245454096189267 0.00363307640662527 0.006685454473940457 -56.27349113541408 -0.037416759725954464 -0.038631806057717884 -56.26123916322584 -38.78825879035733 -0.0340345874923395 0.04187640446374065 0.029314323526109312 0.021616753726382682 -0.036462031553493444 -0.02234172543695671 0.02095113845292965 -0.024951134107034978 -36.73007079227847 -0.01570669334302945 -0.0038340354054829735 0.014251544182862829 -0.016963520357236965 -0.04582335876866081 -0.0018875460890369997 -0.04047120662378315 -0.04281668471065939 -19.76512012644947 0.005882984817889757 0.011145186747419277 -0.007537485553848819 0.046263933233553704 0.0038459852083485495 -0.024231365622783378 -0.02168900289088901 0.029998639833603628 24.080334716485545 -0.01823760411650103 -0.004016006629736602 28.83770246059171 0.04859416269609554 0.0169011976026851 28.846947579459048 0.008049159036349795 -0.035778875391097024 4.924255637807202 1.2624223604047622 13.001561716210645 -68.13691268325704 30.18168167440502 -9.1767573600561 -0.24004039796494953 -2.3467391618617306 -55.31550590891881 -19.050208975381086 -7.6648378352759385 7.779696439478662 -0.501411925650057 0.06570433057219935 -8.101524235915969 -0.027655507078505715 -0.003643096977719411 44.52320896405309 -0.012078656904714847 0.03951046706178107 44.528717648593094 12.453148913499298 0.00496048621355638 0.018927566019347176 -0.031265629897799026 0.038710424753368625 -0.04258529369285135 0.026588742073158984 0.038956374709781694 -0.002669890762246402 11.104154785753655 -0.03139311248969613 -0.048038073420014815 -0.029653602553877664 0.012106127274004367 0.02297154457639959 0.02827327033551911 -0.019626458134452202 0.04426023910011935 4.773193419635139 -0.04439228382722301 0.001242186349530125 -0.04762059272640289 0.023488708893073567 -0.01029744992616428 -0.01654591124539326 -0.04654530610838661 0.038955566952600135 -5.631762950837883 0.04150298351644448 -0.024491481667664555 -6.70822720110281 -0.00821206552349821 -0.0038317434720613972 -6.747101950785371 0.04488245793804457 -0.03014794781680867 0.049447191672718736 -0.021992385683521177 -0.04205990664015152 8.063443046761213 3.4958295128329113 -19.249678699446086 -0.031514313760469495 10.41083202631683 0.047065291621599795 -5.573632537466841 -15.653252397596374 3.2356423894697226 0.02923145128552923 0.01312173871656843 -0.0019370500970999128 -0.020703204358989917 4.6739361673676765 -0.04416762658097674 12.473159355325937 -8.254361630842013 6.859338770744935 0.0412117373329902 46.39539194579881 0.02187511739563221 -4.332977718572632 -14.76568646488266 -3.873855855754955 -0.009787548441651528 -0.004847682103690041 -0.048903996210693405 -0.006387581509360071 -10.73809902812423 0.02159826780443401 
0.04839647223522933 -0.015070730308647083 -0.009219098859635457 0.005341483577825327 -0.004151501650021973 0.003941050395752369 -1.8440403059918398 1.7924888649714392 -0.8974262262856093 -1.0499734796345117 3.943245812499757 0.4243201683993387 -1.1529233416188716 -1.419598411562272 -1.191056363866932 0.7636221233657655 0.5804466170551278 -0.8602665754624236 0.1896926580162013 12.26395332056395 -1.5096150169898468 -0.07028058191681721 -0.992318680188682 -5.007835376661479 0.5009853180096241 -16.74235266569759 -0.38856930426483766 -3.988069338622115 1.3794591579290199 -15.023636010769694 70.7856303357273 26.755861872789996 2.9751559815450213 -0.8453432354599647 4.82860773039381 39.416590487943054 22.5083923607302 -0.15417665757512816 -5.372294109502218 4.499577635619494 -0.1728251729653026 -1.584729228710489 -0.04709075563684976 0.026506505084887236 -56.23118827799193 0.04981389392627822 -0.017017868238703417 -56.28128159201248 -38.79315652105896 0.02041545505713766 -0.022889804669540874 0.04851996874252745 -0.016677675439731504 0.023833809990250778 -0.008469225933932822 -0.01705822521696119 0.03598474202193205 -36.717656231656605 0.020402839400246023 -0.001982907773855775 0.011262276018868903 -0.0023427888322684193 -0.04208717396220776 -0.04226593998776831 0.014220596778104546 0.012889317549375737 -19.797826514100876 -0.02584433414095085 -0.010635273789949683 -0.027219209587350877 -0.02112646613545193 -0.02999834859115811 0.0075878853813176024 0.037374765714800064 0.037751558021575614 24.063545821158367 0.014681149486183901 0.012254648363433157 28.87774513846928 -0.011893479202862673 0.01324913903695437 28.850693522305242 -0.016526036592979673 -0.028824911936431875 4.745916416786355 1.168204418145958 13.011374250552548 -68.13138622122928 30.378613548349126 -8.451014286399673 2.506892933697759 -4.678101179919499 -53.942897344744466 -18.319009758172715 -6.451400740576461 6.9770546240232845 -0.4662563967859246 0.06609303275080425 -8.08387980759915 0.027387802835158705 0.010300371221886411 44.57841105353216 -0.0012005629503674448 0.03238104787433345 44.52404634671839 12.46606147742581 0.016569846182104452 0.02705108797373856 -0.025663422657011783 -0.03328230296839837 0.0015953161840571639 -0.031023956647024762 0.04916723890107406 -0.016081232990414574 11.116548805152338 0.040213274227582564 -0.036677330718891704 0.023030073121181632 -0.032882144785740836 0.004276412543953756 -0.014408859328310555 0.03173902472753031 -0.03624739989863793 4.8064170512961395 -0.030410977259196788 0.019972194675877596 0.03548845692977988 0.012771033640368785 -0.037620914303016104 -0.013767140505104435 -0.0015167096258826783 0.016061222311121 -5.639856609321188 -0.007494463543144979 -0.016737192047239457 -6.770342493053906 -0.017293467484019283 0.04737664121324256 -6.7208592713029605 0.04014872812831009 -0.01640522898186317 0.043154372652661525 -0.03765173387444844 -0.0449624226101867 8.081563309478721 3.4500826794705435 -19.17121163383968 -0.015065890774725105 10.371546961229956 0.039450517220282075 -5.600013885955905 -15.676827456338165 3.2306597687989385 0.010931795316390418 -0.03478180983511821 0.013977462380564706 0.03460672437288854 4.700033814033983 0.03637604024785616 12.410391111865694 -8.280882680444584 6.868613487359364 0.0029529619284172984 46.34287896642079 0.04590101457569203 -4.344066903562395 -14.795883708565116 -3.8503759607756525 0.03502009924513951 0.040434463143306745 0.004251002686013556 0.03231119842597783 -10.786544507102308 -0.019829845545852823 
-0.00811883989377096 -0.014500982214506911 0.012862365929062293 -0.03847777984420831 -0.043303832553439066 -0.04401562731031095 -1.838901864800928 1.649880117795575 -0.8992964773653473 -0.9883430148185242 3.9453932259879845 0.38679122992964393 -1.1919579808601333 -1.3673403623597857 -1.1734318422137853 0.7701705051127242 0.5507483495708558 -0.8502568748293688 0.15777238534197924 12.088940801582181 -1.5425117432613265 -0.0723621973598192 -0.9452553726612938 -5.1037475022640475 0.4915374080402142 -16.58988799605945 -0.44844203211148587 -3.9023540624196986 1.3873428726517187 -15.185719842865 70.86649786237794 26.417240544112584 2.335643029223862 -0.7834856915069972 4.460085327734166 39.342292861576844 22.250812022544398 -0.15676607494595224 -5.1793657750046185 4.526601216204166 -0.11362036959022914 -1.5470957904543023 0.018688954901732006 0.019610935580227848 -56.20110380896297 0.001712969475905799 -0.03917165688868551 -56.27370295647752 -38.75328357296417 -0.04808657614659117 -0.03154633291951708 -0.018969347002176746 -0.042205909683677774 0.002347894684640762 -0.009704200382832153 0.009222333702754017 0.03041584514853389 -36.66601480627066 -0.046561908951453 -0.04162276488936749 -0.04116864943519614 -0.014063900815071174 -0.03931766764929432 0.03305321291206319 0.006565638036292883 0.015858508169762028 -19.734740741124973 0.023905031075673877 -0.022386945236344435 -0.021151714258542464 -0.024815144792444618 0.03853393762748621 0.0385560248793363 -0.041394264875671556 0.0249225231361719 24.06446304363634 0.02210291652467717 0.011373147032168223 28.8580918206037 0.0075460876697673335 -0.005023791164388586 28.89005876717027 -0.025318789093414326 0.030364065400944787 4.473883079706917 1.1914343280445774 13.056436561951774 -68.53373470638111 30.352704831837784 -7.281039914641887 3.9207330435113836 -5.662672946357915 -51.47770705494266 -17.92727959795119 -5.180699447831674 6.137432647606587 -0.48933651375002807 0.10458420866038305 -8.09976869826146 -0.012894392496576255 -0.010463229630792284 44.56598333706213 -0.001141901432090311 -0.03239574187726382 44.55064121033319 12.445383204720804 0.015001048640928097 -0.0168542963928633 0.0017220466909413947 0.0006740605001125432 0.011887069495133734 7.054865125678489e-05 -0.015282504459913596 0.013988568415801208 11.078739027038033 0.030015798831217303 0.037466035973128295 0.04901333601539949 -0.006858914369106583 0.04171622703207174 0.007621807545404998 0.021385466153899465 -0.02877323364299903 4.793416986025976 0.00973712217664162 -0.0014714187793467984 0.02840305637172713 0.024211290430829327 0.00718372285031562 0.018846411977942026 0.03346379827091713 0.04627828096230504 -5.6353730036230205 -0.028122167190500327 0.030976809208079797 -6.735160408534895 0.04785231919080587 0.012091855853252299 -6.699946731821893 -0.012054524730598818 -0.030268651440389552 -0.038079809375240435 -0.011944371894549347 -0.02754047710276555 8.024831578030799 3.444758229278211 -19.210149617389217 -0.022748769853942953 10.435706776301934 -0.013250911734512323 -5.576741833882618 -15.629384987938705 3.182235800664486 0.012118846569821961 -0.006253084937161158 -0.030367765863739363 0.017997918393971104 4.6684786405644845 0.0375402636505503 12.442900875740635 -8.20363612566714 6.867112264381449 -0.01300014477068344 46.39234730540764 0.02706533079201459 -4.328405265528485 -14.736906804523546 -3.831987846441855 -0.036605776375599454 -0.036236829447742626 0.005960914217858779 0.047502230759521334 -10.70290491751209 0.010909713308726244 
0.04523286012892305 -0.037854417125292306 0.022973926605780244 0.04012086061872425 0.044221023114573856 -0.03451729096474725 -1.8778857949498693 1.6843940808437345 -0.8954553821341829 -1.0055409154704518 3.912304725671253 0.35296988380257466 -1.1756925537798308 -1.3893901867818674 -1.1270773834719376 0.7906429937069268 0.5334309152656838 -0.819486167370657 0.23345237867161953 11.923935884594904 -1.5220010771144088 -0.07546572746360748 -1.0192081272835938 -5.338504366891421 0.5308530180183715 -16.570605266563046 -0.4467029493077593 -3.7627689977197467 1.391340298458813 -15.247186830890184 71.23389364379469 26.389097276826355 1.9207866788470882 -1.079155606920032 4.073512504870677 39.47735159631923 22.003896183741116 -0.13014259141072626 -4.929057225860083 4.544808952766978 -0.1729442503789292 -1.616495602733341 -0.025999193332846112 0.04936690325158704 -56.19774673999646 0.003430178052425874 0.016730925567986474 -56.2513690487667 -38.764904812784714 0.01676723874901645 -0.025903298727293474 0.042922892907951996 -0.004567555633821038 -0.03208901689585121 0.0018576678259237828 0.0074693876276119885 0.002768235568835056 -36.708172878927506 0.023662906909330726 -0.01971649703286542 -0.036719378090025706 -0.040496352143414446 -0.007559766433592529 -0.026827018833496877 0.0444840918345921 -0.015091083782551895 -19.80153461917475 -0.004692387871470985 0.027532706154745033 -0.046517746480181185 -0.017060031393468542 0.04777742905031502 0.022381374199390184 -0.018148101029560406 0.002759993555664547 24.017991111244708 0.016239034262048112 -0.01621352649656374 28.818066113336023 0.010837897619149132 -0.005824682270781837 28.911927432686877 -0.027400764566958894 -0.046383872750351024 4.140305464034122 1.0491025832577388 13.112040244831245 -69.29248476150187 30.01732855443904 -5.807946831719975 3.9500696376110502 -5.54121608511949 -48.32828956685797 -17.53356669733364 -3.890837103370031 5.267743784645002 -0.4757267155540992 0.10594615480262291 -8.158710563390786 0.02510661204611881 0.039933766574775306 44.53118758627558 0.04848121963959831 0.03608639273632909 44.60098905481986 12.483942007678461 -0.02654959675292931 0.03322067740130311 0.0035801736727803027 0.0006195583520750062 -0.018166753734191587 0.009443131315931214 -9.946874126787101e-05 -0.04345051944138055 11.09563384164469 -0.01848457695514099 0.03707224730823719 -0.034067226197116336 -0.046565317803519815 0.024582063852525444 0.014553062940631842 0.03194538797660904 0.03728528587669266 4.764278229500716 0.03551335908603199 0.01832785536507655 0.01817295890382381 -0.01810475827832344 0.04516272663169522 -0.034592086309686534 0.0055378490494865824 -0.030718049905004867 -5.620474550601331 -0.02767196006283038 -0.0028271461214840346 -6.724575211982965 0.03189265725309107 -0.008028715204566285 -6.730952313090282 0.0289408154865361 -0.04346017269783067 -0.03803503376761367 0.027879867170400877 -0.004030245855796189 8.088107067911285 3.465884445558551 -19.2319627760112 -0.04689441044096529 10.385711387838837 0.023657386938952515 -5.658653281254362 -15.645280217600536 3.1965014583912543 -0.01419860193744817 0.007437115104205834 0.026424120924931422 0.02935694664570829 4.686751953053215 -0.01978193506062585 12.491255958239629 -8.214765343497723 6.859899794865266 0.002319155552627988 46.369211593003996 0.0015729501528348707 -4.307175415531726 -14.721238051581823 -3.8284011093980936 -0.037490231124279315 -0.015869389589622227 -0.0071125132978805275 0.008465937343236543 -10.714648792942093 0.0071781442775403406 
